# xmcd
#
# Track frame offsets: 
#        150
#        18823
#        36741
#        63993
#        76107
#        95787
#        112063
#        134742
#        149813
#        169024
#        185772
#        201951
#        223140
#        242449
#        258595
#        278771
#        295734
#        311023
#        323511
#
# Disc length: 4710 seconds
#
# Revision: 0
# Processed by: cddbd v1.5.2PL0 Copyright (c) Steve Scherf et al.
# Submitted via: ExactAudioCopy v1.0b1
#
DISCID=2c126413
DTITLE=Various Artist - Moulin Blues 2017 Promo
DYEAR=2017
DGENRE=Blues
TTITLE0=Davy Knowles - Ain't No Gravy
TTITLE1=Jeff Jensen - Brunette Woman
TTITLE2=Lurrie Bell - Blues In My Soul
TTITLE3=Lance Canales - The Farmer
TTITLE4=Doyle Bramhall II - Mama Can't Help You
TTITLE5=Lil' Jimmy Reed - Going To New York
TTITLE6=Kirk Fletcher - Rockwithme
TTITLE7=Woody Pines - Junco Partner
TTITLE8=Thorbjorn Risager - If You Wanna Leave
TTITLE9=Fred Eaglesmith - Time To Get A Gun
TTITLE10=Cash Box Kings - Gotta Move Out The Suburbs
TTITLE11=Southern Avenue - Don't Give Up
TTITLE12=Shakedown Tim - How Long
TTITLE13=Big Creek Slim - You Don't Love Me
TTITLE14=Mr. Sipp - Jump The Broom
TTITLE15=Jake Labotz - How I Wish She Was Mine
TTITLE16=Detonics - I Can't Be Satisfied
TTITLE17=Frank 'Paris Slim' Goldwasser - I'm A Love You
TTITLE18=Nick Schnebelen - Fool
EXTD=
EXTT0=
EXTT1=
EXTT2=
EXTT3=
EXTT4=
EXTT5=
EXTT6=
EXTT7=
EXTT8=
EXTT9=
EXTT10=
EXTT11=
EXTT12=
EXTT13=
EXTT14=
EXTT15=
EXTT16=
EXTT17=
EXTT18=
PLAYORDER=
